<svg width="420" height="420" viewBox="0 0 420 420" fill="none" xmlns="http://www.w3.org/2000/svg">
<rect width="420" height="420" rx="100" fill="url(#paint0_linear_12_6)"/>
<path d="M135.407 310V109.72H215.597C230.331 109.72 242.621 111.904 252.465 116.272C262.31 120.64 269.709 126.704 274.664 134.462C279.619 142.155 282.096 151.021 282.096 161.062C282.096 168.885 280.532 175.763 277.402 181.696C274.273 187.563 269.97 192.388 264.494 196.169C259.082 199.885 252.889 202.526 245.913 204.09V206.046C253.541 206.372 260.68 208.524 267.33 212.501C274.045 216.477 279.489 222.052 283.661 229.223C287.834 236.329 289.92 244.805 289.92 254.649C289.92 265.276 287.279 274.762 281.999 283.107C276.783 291.387 269.057 297.939 258.822 302.763C248.586 307.588 235.971 310 220.976 310H135.407ZM177.751 275.381H212.272C224.073 275.381 232.678 273.132 238.09 268.634C243.501 264.07 246.206 258.007 246.206 250.444C246.206 244.903 244.87 240.013 242.197 235.775C239.524 231.538 235.71 228.213 230.755 225.8C225.865 223.388 220.031 222.182 213.25 222.182H177.751V275.381ZM177.751 193.529H209.143C214.945 193.529 220.096 192.518 224.594 190.497C229.158 188.411 232.744 185.477 235.351 181.696C238.024 177.914 239.361 173.383 239.361 168.103C239.361 160.866 236.786 155.031 231.635 150.598C226.55 146.164 219.313 143.948 209.925 143.948H177.751V193.529Z" fill="white"/>
<defs>
<linearGradient id="paint0_linear_12_6" x1="0" y1="0" x2="420" y2="420" gradientUnits="userSpaceOnUse">
<stop stop-color="#07E9FF"/>
<stop offset="1" stop-color="#398EFC"/>
</linearGradient>
</defs>
</svg>
